<?xml version="1.0" standalone="no"?>
<!DOCTYPE svg PUBLIC "-//W3C//DTD SVG 20010904//EN"
 "http://www.w3.org/TR/2001/REC-SVG-20010904/DTD/svg10.dtd">
<svg version="1.0" xmlns="http://www.w3.org/2000/svg"
 width="512.000000pt" height="512.000000pt" viewBox="0 0 512.000000 512.000000"
 preserveAspectRatio="xMidYMid meet">
<metadata>
Created by potrace 1.14, written by Peter Selinger 2001-2017
</metadata>
<g transform="translate(0.000000,512.000000) scale(0.100000,-0.100000)"
fill="#000000" stroke="none">
<path d="M2533 5110 c-12 -5 -26 -18 -32 -29 -7 -12 -11 -119 -11 -295 0 -263
1 -277 20 -296 11 -11 33 -20 50 -20 17 0 39 9 50 20 19 19 20 33 20 299 0
251 -2 281 -17 299 -22 25 -51 33 -80 22z"/>
<path d="M805 4385 c-50 -49 -42 -61 173 -277 175 -176 201 -198 230 -198 41
0 72 30 72 71 0 28 -24 56 -182 216 -223 225 -244 238 -293 188z"/>
<path d="M4225 4391 c-16 -10 -110 -99 -207 -198 -155 -156 -178 -184 -178
-212 0 -41 31 -71 72 -71 29 0 55 22 230 198 215 216 223 228 173 277 -29 30
-50 31 -90 6z"/>
<path d="M2375 4274 c-335 -51 -623 -194 -854 -425 -113 -112 -204 -237 -268
-365 -44 -90 -45 -92 -29 -122 9 -18 27 -34 42 -38 45 -11 71 10 113 93 109
217 308 424 526 548 110 62 210 102 345 138 107 28 127 30 300 31 146 1 203
-3 270 -18 269 -59 506 -191 695 -387 184 -192 299 -412 357 -682 30 -145 30
-389 0 -534 -58 -269 -164 -472 -362 -688 -167 -183 -242 -299 -270 -422 l-12
-53 -657 0 -657 0 -18 58 c-42 131 -105 225 -268 399 -211 225 -321 430 -379
706 -26 123 -31 369 -10 486 12 69 12 75 -6 100 -35 46 -96 40 -118 -12 -24
-59 -38 -223 -32 -371 17 -373 151 -692 408 -971 196 -213 257 -307 279 -424
6 -29 10 -165 10 -302 0 -257 7 -323 42 -394 28 -55 83 -121 118 -142 27 -16
30 -22 30 -69 0 -70 16 -150 41 -200 50 -105 159 -184 279 -203 84 -14 486
-14 569 -1 194 32 321 188 321 395 0 57 2 62 30 79 44 25 105 106 131 173 22
55 24 75 29 388 5 277 9 337 23 374 34 87 95 171 237 326 199 217 320 451 382
739 32 148 32 445 -1 596 -127 594 -557 1034 -1141 1172 -65 15 -130 20 -275
23 -104 2 -203 1 -220 -1z m845 -3194 l0 -130 -102 0 c-91 0 -104 -2 -125 -22
-28 -26 -30 -67 -4 -99 18 -22 28 -24 125 -27 l106 -4 0 -31 c-1 -77 -86 -181
-168 -205 -28 -8 -172 -12 -483 -12 -444 0 -444 0 -494 24 -81 37 -145 124
-145 195 l0 30 394 3 c371 3 395 4 415 22 28 26 28 79 -1 106 -21 19 -33 20
-415 20 l-393 0 0 125 0 124 88 4 c48 1 338 4 645 5 l557 2 0 -130z m-190
-720 c0 -70 -50 -146 -119 -182 l-53 -28 -282 0 c-251 0 -285 2 -321 19 -78
36 -134 117 -135 196 l0 40 455 0 455 0 0 -45z"/>
<path d="M3077 3249 c-51 -12 -87 -32 -119 -66 -14 -15 -133 -165 -263 -333
-131 -168 -240 -305 -245 -305 -4 0 -77 77 -163 171 -171 189 -194 204 -295
204 -173 -1 -284 -176 -209 -332 30 -63 514 -597 570 -629 60 -34 164 -34 226
1 63 36 381 444 381 489 0 55 -52 87 -100 61 -10 -6 -86 -97 -168 -203 -82
-105 -158 -199 -168 -208 -31 -27 -61 -31 -96 -14 -30 15 -451 470 -505 547
-32 43 -30 83 6 119 37 37 88 39 125 7 14 -13 100 -106 191 -208 92 -102 176
-188 187 -192 11 -5 30 -5 43 -2 15 4 119 129 309 374 157 202 293 371 302
374 81 31 162 -52 123 -126 -6 -11 -47 -66 -90 -122 -60 -76 -79 -109 -79
-132 0 -46 35 -71 91 -66 20 2 174 198 206 260 27 54 30 135 7 190 -42 102
-162 165 -267 141z"/>
<path d="M99 2682 c-31 -26 -31 -78 0 -104 21 -16 46 -18 302 -18 266 0 280 1
299 20 26 26 26 74 0 100 -19 19 -33 20 -299 20 -256 0 -281 -2 -302 -18z"/>
<path d="M4420 2680 c-11 -11 -20 -33 -20 -50 0 -17 9 -39 20 -50 19 -19 33
-20 299 -20 256 0 281 2 302 18 31 26 31 78 0 104 -21 16 -46 18 -302 18 -266
0 -280 -1 -299 -20z"/>
<path d="M978 1152 c-215 -215 -223 -228 -173 -277 49 -50 61 -42 277 173 176
175 198 201 198 230 0 42 -30 72 -72 72 -28 0 -55 -23 -230 -198z"/>
<path d="M3860 1330 c-12 -12 -20 -33 -20 -52 0 -29 22 -55 198 -230 216 -215
228 -223 277 -173 50 49 42 62 -173 277 -175 175 -202 198 -230 198 -19 0 -40
-8 -52 -20z"/>
</g>
</svg>
